<?xml version="1.0" encoding="UTF-8" standalone="no"?>
<svg
   width="200mm"
   height="200mm"
   viewBox="0 0 200 200"
   version="1.1"
   id="svg850"
   inkscape:version="1.1.1 (3bf5ae0d25, 2021-09-20)"
   sodipodi:docname="icon_qa_symbol.svg"
   inkscape:export-filename="D:\PROJEKTI\Inkscape\QA\QA_BugHuntingSymbol_BlacWHite.png"
   inkscape:export-xdpi="200"
   inkscape:export-ydpi="200"
   xmlns:inkscape="http://www.inkscape.org/namespaces/inkscape"
   xmlns:sodipodi="http://sodipodi.sourceforge.net/DTD/sodipodi-0.dtd"
   xmlns="http://www.w3.org/2000/svg"
   xmlns:svg="http://www.w3.org/2000/svg"
   xmlns:rdf="http://www.w3.org/1999/02/22-rdf-syntax-ns#"
   xmlns:cc="http://creativecommons.org/ns#"
   xmlns:dc="http://purl.org/dc/elements/1.1/">
  <title
     id="title896">Bug Hunting Symbol</title>
  <defs
     id="defs844">
    <filter
       inkscape:collect="always"
       style="color-interpolation-filters:sRGB"
       id="filter919-0"
       x="-0.040708517"
       width="1.081417"
       y="-0.060889198"
       height="1.1217784">
      <feGaussianBlur
         inkscape:collect="always"
         stdDeviation="0.0008468556"
         id="feGaussianBlur921-9" />
    </filter>
  </defs>
  <sodipodi:namedview
     id="base"
     pagecolor="#ffffff"
     bordercolor="#666666"
     borderopacity="1.0"
     inkscape:pageopacity="1"
     inkscape:pageshadow="2"
     inkscape:zoom="0.65071668"
     inkscape:cx="537.10011"
     inkscape:cy="383.4234"
     inkscape:document-units="mm"
     inkscape:current-layer="svg850"
     inkscape:document-rotation="0"
     showgrid="false"
     inkscape:pagecheckerboard="false"
     inkscape:window-width="1920"
     inkscape:window-height="1017"
     inkscape:window-x="3832"
     inkscape:window-y="915"
     inkscape:window-maximized="1"
     inkscape:lockguides="false" />
  <metadata
     id="metadata847">
    <rdf:RDF>
      <cc:Work
         rdf:about="">
        <dc:format>image/svg+xml</dc:format>
        <dc:type
           rdf:resource="http://purl.org/dc/dcmitype/StillImage" />
        <dc:creator>
          <cc:Agent>
            <dc:title>Lukman Leon</dc:title>
          </cc:Agent>
        </dc:creator>
        <cc:license
           rdf:resource="http://creativecommons.org/licenses/by-nd/4.0/" />
        <dc:language>English</dc:language>
        <dc:source>.svg</dc:source>
        <dc:rights>
          <cc:Agent>
            <dc:title>CC-BY-ND</dc:title>
          </cc:Agent>
        </dc:rights>
        <dc:publisher>
          <cc:Agent>
            <dc:title>unpublished</dc:title>
          </cc:Agent>
        </dc:publisher>
        <dc:date>2021-11-20 16:10:37 </dc:date>
        <dc:subject>
          <rdf:Bag>
            <rdf:li>bug</rdf:li>
            <rdf:li>magnifying glass</rdf:li>
          </rdf:Bag>
        </dc:subject>
        <dc:description>Red bug inside a magnifying glass</dc:description>
        <dc:title>Bug Hunting Symbol</dc:title>
      </cc:Work>
      <cc:License
         rdf:about="http://creativecommons.org/licenses/by-nd/4.0/">
        <cc:permits
           rdf:resource="http://creativecommons.org/ns#Reproduction" />
        <cc:permits
           rdf:resource="http://creativecommons.org/ns#Distribution" />
        <cc:requires
           rdf:resource="http://creativecommons.org/ns#Notice" />
        <cc:requires
           rdf:resource="http://creativecommons.org/ns#Attribution" />
      </cc:License>
    </rdf:RDF>
  </metadata>
  <g
     id="g951"
     style="display:inline"
     transform="matrix(1.7636036,0,0,1.7636036,-174.39173,-74.128649)">
    <circle
       style="display:inline;opacity:1;fill:none;fill-opacity:1;stroke:#e6e6e6;stroke-width:1.5;stroke-linecap:round;stroke-miterlimit:4;stroke-dasharray:none;stroke-opacity:1"
       id="path940"
       cx="138.96886"
       cy="81.98806"
       r="30.968866" />
    <g
       id="g936">
      <g
         id="g1096"
         style="display:inline;stroke:#e6e6e6;stroke-width:1.5;stroke-miterlimit:4;stroke-dasharray:none;stroke-opacity:1">
        <g
           id="g1117"
           style="stroke:#e6e6e6;stroke-width:1.5;stroke-miterlimit:4;stroke-dasharray:none;stroke-opacity:1">
          <path
             id="path17-5"
             style="display:inline;fill:none;fill-opacity:0.590361;stroke:#e6e6e6;stroke-width:1.5;stroke-linecap:round;stroke-miterlimit:4;stroke-dasharray:none;stroke-opacity:1"
             d="m 175.46886,81.988053 c 0,0.62995 -0.016,1.256172 -0.0475,1.878285 -0.0671,1.269408 -0.19563,2.511487 -0.37307,3.680305 -0.19139,1.235072 -0.44005,2.437547 -0.72856,3.563329 -0.30988,1.19401 -0.67237,2.350649 -1.06569,3.428006 -0.4224,1.146217 -0.89248,2.250827 -1.38449,3.274337 -0.52882,1.09175 -1.10027,2.13809 -1.68493,3.102325 -0.58669,0.97133 -1.11407,1.75617 -1.84002,2.64372 l 4.73973,4.91707 -7.5745,7.57449 -5.09942,-4.67769 c -1.47219,1.07736 -2.56222,1.90403 -4.04349,2.71048 -1.07047,0.57868 -2.14977,1.0956 -3.19062,1.537 -1.13106,0.47564 -2.26537,0.88783 -3.35347,1.22738 -1.18576,0.3661 -2.36891,0.66727 -3.49796,0.89942 -1.23461,0.24994 -2.46041,0.4338 -3.62411,0.5531 -1.2776,0.12702 -2.53983,0.18731 -3.73191,0.18846 -20.15839,0 -36.5,-16.34161 -36.5,-36.500007 0,-20.158393 16.34161,-36.5 36.5,-36.5 20.15839,0 36.5,16.341607 36.5,36.5 z"
             sodipodi:nodetypes="sccccccccccccccccssss" />
          <path
             style="fill:none;fill-opacity:1;stroke:#e6e6e6;stroke-width:1.5;stroke-linecap:butt;stroke-linejoin:miter;stroke-miterlimit:4;stroke-dasharray:none;stroke-opacity:1"
             d="m 177.55716,112.94826 -7.5745,7.57449 13.24651,15.09076 13.24651,15.09076 c 0,0 4.90938,3.58142 9.72056,-1.22976 4.81118,-4.81118 1.22975,-9.72054 1.22975,-9.72054 l -14.93441,-13.40286 z"
             id="path1066"
             sodipodi:nodetypes="cccczccc" />
        </g>
      </g>
      <g
         id="g860"
         transform="translate(-1.2651832)">
        <g
           aria-label="&gt;"
           id="text13-8"
           style="font-style:normal;font-weight:normal;font-size:127.943px;line-height:1.25;font-family:sans-serif;display:inline;fill:none;fill-opacity:1;stroke:#e6e6e6;stroke-width:6.79123;stroke-miterlimit:4;stroke-dasharray:none;stroke-opacity:1;filter:url(#filter919-0)"
           transform="matrix(-0.13720892,0,0,-0.1580233,127.42601,110.93195)">
          <path
             d="M 85.489272,190.28397 2.0264546,224.95603 V 207.02652 L 60.437932,183.16215 2.0264546,159.29778 v -17.92951 l 83.4628174,34.67205 z"
             style="font-weight:bold;font-size:127.943px;fill:none;stroke:#e6e6e6;stroke-width:6.79123;stroke-miterlimit:4;stroke-dasharray:none;stroke-opacity:1"
             id="path15-1" />
        </g>
        <path
           style="display:inline;fill:#e6e6e6;fill-opacity:1;stroke:#ffffff;stroke-width:0;stroke-miterlimit:4;stroke-dasharray:none;stroke-opacity:1;filter:url(#filter919-0)"
           d="m 62.69908,91.86256 c -1.27355,-1.484482 -7.772674,-13.880089 -7.398652,-14.111256 0.216189,-0.133569 3.241134,-0.725212 6.72223,-1.314792 4.056831,-0.687069 6.267855,-1.215764 6.15806,-1.472481 -2.457676,-5.746987 -3.785613,-10.524885 -4.154419,-14.94734 L 63.788566,57.165593 58.98233,55.318594 c -2.643401,-1.015846 -4.925518,-1.892995 -5.071332,-1.949223 -0.14589,-0.0562 -0.552265,0.942875 -0.903194,2.2202 -1.858507,6.764947 -2.074053,7.302558 -3.023471,7.540846 -1.143912,0.287093 -2.015735,-0.396809 -2.015735,-1.581264 0,-0.88936 3.149631,-12.275603 3.489713,-12.615689 0.09713,-0.09725 2.807055,0.84291 6.02177,2.089232 3.214678,1.246322 5.969802,2.265559 6.122457,2.264965 0.152693,-0.0012 0.279685,-0.459 0.282331,-1.018673 0.0189,-4.259082 2.813934,-12.001312 5.676548,-15.732098 0.744151,-0.969846 1.393814,-1.9019 1.443628,-2.071234 0.07635,-0.2592 -7.344869,-6.857556 -8.551256,-7.603148 -0.218079,-0.134702 -2.63743,1.509472 -5.376605,3.653726 -5.035843,3.942078 -6.283729,4.518063 -7.254463,3.348401 -0.932485,-1.123578 0.02646,-2.23751 5.745524,-6.665408 3.153676,-2.442218 5.962092,-4.594186 6.240945,-4.782138 0.370772,-0.250016 1.781594,0.74296 5.256869,3.700331 2.612448,2.223145 5.212838,4.432033 5.778671,4.908646 l 1.028826,0.866582 1.743836,-1.155096 c 3.739767,-2.477102 8.492372,-4.15367 13.205291,-4.658377 l 2.439799,-0.261279 v 33.346103 33.346115 h -1.03234 c -1.865462,0 -5.316435,-1.102912 -8.28756,-2.648663 -3.405316,-1.77165 -7.679168,-5.585998 -10.16999,-9.076551 -1.16126,-1.627366 -1.872265,-2.307254 -2.290583,-2.190278 -0.333732,0.09332 -2.354948,0.450581 -4.491893,0.793966 -2.136945,0.34337 -4.074444,0.730329 -4.305562,0.859884 -0.27515,0.15428 0.521877,1.959303 2.309896,5.23101 1.501531,2.747497 2.731351,5.253547 2.732901,5.568998 0.0076,1.424851 -2.033613,1.973434 -3.028271,0.814076 z M 94.222759,59.164003 V 25.8179 l 2.439761,0.261279 c 4.71291,0.504706 9.46556,2.181275 13.20529,4.658377 l 1.74387,1.155095 1.02879,-0.866581 c 0.56583,-0.476614 3.16626,-2.685502 5.77871,-4.908646 3.47523,-2.957371 4.88594,-3.950359 5.25687,-3.700332 0.27892,0.187956 3.08723,2.339921 6.2409,4.782138 5.71782,4.427898 6.67801,5.541831 5.74553,6.665409 -0.97074,1.169662 -2.21862,0.593677 -7.25443,-3.348401 -2.73917,-2.144254 -5.15868,-3.788432 -5.3766,-3.653726 -1.20639,0.745591 -8.62757,7.343928 -8.55126,7.603147 0.0499,0.169323 0.69944,1.101389 1.44359,2.071234 2.86262,3.730787 5.65622,11.473017 5.67659,15.732099 0.003,0.559672 0.12963,1.018076 0.28233,1.018673 0.15269,0.0012 2.90774,-1.018643 6.12245,-2.264965 3.21472,-1.246322 5.92453,-2.186475 6.02174,-2.089232 0.34015,0.340082 3.48971,11.726328 3.48971,12.615689 0,1.184455 -0.87182,1.868364 -2.0157,1.581264 -0.94941,-0.2383 -1.16496,-0.7759 -3.02351,-7.540846 -0.35074,-1.277325 -0.75734,-2.276417 -0.90315,-2.2202 -0.14589,0.0562 -2.42797,0.933377 -5.07137,1.949223 l -4.8062,1.846999 -0.23773,2.851098 c -0.36888,4.422455 -1.69678,9.200352 -4.15442,14.94734 -0.10999,0.256705 2.10123,0.785412 6.15802,1.472481 3.48113,0.58958 6.50615,1.181235 6.72223,1.314792 0.37417,0.231156 -6.12506,12.626774 -7.39865,14.111255 -0.99462,1.159359 -3.03527,0.610776 -3.02827,-0.814076 10e-4,-0.315439 1.23137,-2.8215 2.73294,-5.568998 1.78801,-3.271706 2.58504,-5.076733 2.30985,-5.23101 -0.23093,-0.129562 -2.16858,-0.516502 -4.30552,-0.859884 -2.13695,-0.34337 -4.15831,-0.700667 -4.49193,-0.793965 -0.41828,-0.116976 -1.12929,0.562911 -2.29055,2.190278 -2.49082,3.490552 -6.76467,7.304901 -10.17002,9.07655 -2.97113,1.545752 -6.422059,2.648663 -8.287521,2.648663 h -1.03234 z M 78.311326,23.327758 c 0,-4.955637 2.154104,-9.094945 6.094639,-11.711308 L 86.426954,10.274581 85.339206,8.6935554 C 82.626375,4.750601 78.79023,2.6308303 73.788441,2.310863 71.419773,2.1593418 70.893247,2.0100126 70.711754,1.4382533 70.337203,0.25804285 70.864825,0.00177576 73.668743,0.00177576 c 6.106054,0 11.396183,3.05474274 14.418369,8.32574754 l 0.636472,1.1101043 h 3.977462 3.977461 l 1.469632,-2.2202007 c 2.992431,-4.5208404 8.097141,-7.21565114 13.668311,-7.21565114 2.80407,0 3.33158,0.25625197 2.95699,1.43647754 -0.18141,0.5717518 -0.70798,0.7210809 -3.07664,0.8726097 -3.58424,0.229304 -6.52695,1.3370344 -8.74999,3.2938168 -2.17508,1.9145877 -4.236355,4.8354792 -3.569305,5.0578242 1.227625,0.409195 4.402765,3.45286 5.490435,5.263046 1.40595,2.33989 1.85258,3.768158 2.1368,6.833276 0.28082,3.027084 -0.0469,3.441615 -2.11151,2.672681 -4.14316,-1.543011 -6.367475,-1.899182 -11.965602,-1.915971 -5.77629,-0.01739 -9.034772,0.515267 -12.704315,2.07648 -0.881839,0.375156 -1.672781,0.68213 -1.757669,0.68213 -0.08504,0 -0.154205,-1.325878 -0.154205,-2.946388 z"
           id="path34"
           transform="matrix(0.26458333,0,0,0.26458333,115.69589,69.749507)" />
        <g
           aria-label="&gt;"
           id="text13"
           style="font-style:normal;font-weight:normal;font-size:127.943px;line-height:1.25;font-family:sans-serif;display:inline;fill:none;fill-opacity:1;stroke:#e6e6e6;stroke-width:6.79123;stroke-miterlimit:4;stroke-dasharray:none;stroke-opacity:1;filter:url(#filter919-0)"
           transform="matrix(0.13720892,0,0,0.1580233,153.04207,53.044172)">
          <path
             d="M 85.489272,190.28397 2.0264546,224.95603 V 207.02652 L 60.437932,183.16215 2.0264546,159.29778 v -17.92951 l 83.4628174,34.67205 z"
             style="font-weight:bold;font-size:127.943px;fill:none;stroke:#e6e6e6;stroke-width:6.79123;stroke-miterlimit:4;stroke-dasharray:none;stroke-opacity:1"
             id="path15" />
        </g>
      </g>
    </g>
  </g>
</svg>
